# xmcd
#
# Track frame offsets:
#	150
#	18481
#	34811
#	50614
#	66756
#	79656
#	92785
#	120598
#	131274
#	146221
#	165110
#	181660
#	194262
#	214713
#	226896
#	240199
#	256257
#	281858
#	300008
#	312036
#	328664
#
# Disc length: 4691 seconds
#
# Revision: 0
# Processed by: cddbd v1.4PL0 Copyright (c) Steve Scherf et al.
# Submitted via: EasyCDDAExtractor 4.6.9.1
#
DISCID=0e125115
DTITLE=BEATLES - A Tribute To CD1
DYEAR=1900
DGENRE=Pop
TTITLE0=MICAEL JACKSON - Come Togedher
TTITLE1=EARTH, WIND and FIRE - Got To Get You Into My Life
TTITLE2=ROBUN GIBB - Oh! Darling
TTITLE3=SARAH VAUGHAN - I Want You
TTITLE4=WET WET WET - Yesterday
TTITLE5=CARPENTERS - Pleasae Mr. Postman
TTITLE6=STAN WEB - I Saw Her Standing There
TTITLE7=SLADE - Martha My Dear
TTITLE8=CELINE DION - Here and There Everywhere
TTITLE9=CHEAP TRICK - Magical Mystery Tour
TTITLE10=SARAH VAUGHAN - Blackbird
TTITLE11=ALICE COOPER - Because
TTITLE12=TINA TURNER - Help!
TTITLE13=FRANKIE HOWRED - When I'm Sixty Four
TTITLE14=PROCOL HARUM -Eight Days A Week
TTITLE15=SANDY FARINA - Strawberry Fields Forewer
TTITLE16=PHIL COLINS - Golden Slumbers
TTITLE17=STEWE MARTIN - Maxwell's Silwer Hammer
TTITLE18=WET WET WET - With A Litte Help From My Friends
TTITLE19=PETER FRAMPTON - The Long and Winding Road
TTITLE20=BAEEY GIBB - A Day In The Life
EXTD=
EXTT0=
EXTT1=
EXTT2=
EXTT3=
EXTT4=
EXTT5=
EXTT6=
EXTT7=
EXTT8=
EXTT9=
EXTT10=
EXTT11=
EXTT12=
EXTT13=
EXTT14=
EXTT15=
EXTT16=
EXTT17=
EXTT18=
EXTT19=
EXTT20=
PLAYORDER=
